:FULLY-SPECIFIED
:FORCE-ALL-JOINTS-BE-3DOF
:DEGREES
306
root -0.399739 15.4299 -36.2605 11.2489 59.947 5.75683
lfemur -17.3114 16.9282 -13.3871
ltibia 61.8185 -0 0
lfoot -27.0514 28.3742 0.00979941
ltoes 1.1334 -0 0
rfemur -37.7412 -9.42788 8.54405
rtibia 46.7024 -0 0
rfoot -1.64665 -6.10077 2.57923
rtoes -7.20671 0 0
lowerback 13.9344 1.47847 -2.18631
upperback -2.60916 1.90549 2.37256
thorax -10.6391 1.1115 3.40653
lowerneck -5.80518 2.57528 -0.308512
upperneck 6.36059 3.84914 -4.2
head 3.51392 1.74046 -1.00777
lclavicle 0 0 0
lhumerus -30.5322 -30.6085 92.8793
lradius 104.427 -0 0
lwrist 40.2688 0 0
lhand -20.4724 47.0549 0.110886
lfingers 0 0 0
lthumb 5.88351 76.9453 0.106265
rclavicle 0 0 0
rhumerus -1.6477 33.089 -74.8201
rradius 76.9933 -0 0
rwrist -21.101 0 0
rhand 18.0228 -25.483 1.57196
rfingers 0 0 0
rthumb 41.811 -43.1494 3.87729
307
root -0.274302 15.4201 -36.2081 11.9691 62.1688 7.02479
lfemur -15.9729 15.7738 -13.432
ltibia 60.7574 -0 0
lfoot -27.1587 28.326 0.00981271
ltoes 0.206517 -0 0
rfemur -38.2161 -8.62798 7.90992
rtibia 45.7703 -0 0
rfoot -0.0934462 -5.20961 2.58279
rtoes -5.52526 0 0
lowerback 13.9998 1.45289 -2.70739
upperback -2.52419 1.77006 2.31762
thorax -10.587 1.07525 3.67339
lowerneck -5.83476 2.03683 -0.671472
upperneck 6.44268 3.13467 -3.8522
head 3.52897 1.38892 -0.876118
lclavicle 0 0 0
lhumerus -31.7763 -31.0052 94.6594
lradius 103.871 -0 0
lwrist 41.0622 0 0
lhand -20.6001 46.597 0.111037
lfingers 0 0 0
lthumb 5.76024 76.4907 0.106409
rclavicle 0 0 0
rhumerus 1.36488 31.9543 -73.8283
rradius 75.2004 -0 0
rwrist -19.422 0 0
rhand 16.2247 -25.9525 1.57413
rfingers 0 0 0
rthumb 40.1305 -44.3972 3.88268
308
root -0.149996 15.4105 -36.1558 12.8574 64.3752 8.45398
lfemur -14.6448 14.6242 -13.5042
ltibia 59.6995 -0 0
lfoot -27.2656 28.2781 0.00973629
ltoes -0.717588 0 0
rfemur -38.6976 -7.83571 7.27232
rtibia 44.841 -0 0
rfoot 1.45496 -4.32136 2.56232
rtoes -3.84885 0 0
lowerback 14.0653 1.42798 -3.22692
upperback -2.43935 1.63512 2.26266
thorax -10.5352 1.03888 3.93941
lowerneck -5.86085 1.49983 -1.03296
upperneck 6.52015 2.42187 -3.50668
head 3.54318 1.0384 -0.74497
lclavicle 0 0 0
lhumerus -33.0353 -31.3674 96.4508
lradius 103.317 -0 0
lwrist 41.8533 0 0
lhand -20.7274 46.1404 0.110171
lfingers 0 0 0
lthumb 5.63735 76.0375 0.105579
rclavicle 0 0 0
rhumerus 4.30856 30.7811 -72.9219
rradius 73.4129 -0 0
rwrist -17.7481 0 0
rhand 14.432 -26.4204 1.56164
rfingers 0 0 0
rthumb 38.4554 -45.6409 3.85171
309
root -0.0272342 15.4014 -36.1036 13.9534 66.5551 10.0824
lfemur -13.3308 13.4843 -13.6026
ltibia 58.6489 -0 0
lfoot -27.3718 28.2304 0.00957176
ltoes -1.63534 0 0
rfemur -39.1836 -7.05421 6.63362
rtibia 43.9181 -0 0
rfoot 2.99219 -3.44011 2.51827
rtoes -2.18397 0 0
lowerback 14.1305 1.40383 -3.74291
upperback -2.35497 1.50118 2.20788
thorax -10.4839 1.00251 4.20357
lowerneck -5.8834 0.96636 -1.39165
upperneck 6.5928 1.71352 -3.16464
head 3.55649 0.69026 -0.614821
lclavicle 0 0 0
lhumerus -34.3029 -31.6934 98.2453
lradius 102.767 -0 0
lwrist 42.6389 0 0
lhand -20.8538 45.6869 0.108307
lfingers 0 0 0
lthumb 5.51531 75.5874 0.103793
rclavicle 0 0 0
rhumerus 7.17551 29.5785 -72.1023
rradius 71.6377 -0 0
rwrist -16.0857 0 0
rhand 12.6518 -26.8845 1.53475
rfingers 0 0 0
rthumb 36.7929 -46.8745 3.78507
310
root 0.0935706 15.3926 -36.052 15.3087 68.6966 11.9605
lfemur -12.035 12.3593 -13.7259
ltibia 57.6096 -0 0
lfoot -27.4769 28.1833 0.00932213
ltoes -2.54316 0 0
rfemur -39.6722 -6.28652 5.99629
rtibia 43.0052 -0 0
rfoot 4.51187 -2.56989 2.45148
rtoes -0.537096 0 0
lowerback 14.1953 1.38052 -4.25334
upperback -2.27138 1.36878 2.1535
thorax -10.4334 0.966311 4.46484
lowerneck -5.90241 0.438537 -1.74621
upperneck 6.66048 1.01241 -2.82729
head 3.56887 0.345858 -0.486167
lclavicle 0 0 0
lhumerus -35.5722 -31.9823 100.034
lradius 102.222 -0 0
lwrist 43.416 0 0
lhand -20.9788 45.2384 0.105479
lfingers 0 0 0
lthumb 5.3946 75.1421 0.101083
rclavicle 0 0 0
rhumerus 9.95889 28.3559 -71.3692
rradius 69.8817 -0 0
rwrist -14.4413 0 0
rhand 10.8911 -27.3425 1.494
rfingers 0 0 0
rthumb 35.1503 -48.0923 3.68407
311
root 0.212005 15.3841 -36.001 16.9922 70.787 14.1552
lfemur -10.7613 11.2538 -13.8721
ltibia 56.5858 -0 0
lfoot -27.5804 28.1369 0.00899171
ltoes -3.43748 0 0
rfemur -40.1613 -5.5356 5.3629
rtibia 42.1058 -0 0
rfoot 6.00771 -1.7147 2.36317
rtoes 1.08528 -0 0
lowerback 14.2592 1.35812 -4.75619
upperback -2.18891 1.23842 2.09975
thorax -10.3838 0.930423 4.72218
lowerneck -5.91795 -0.0815419 -2.09532
upperneck 6.7231 0.321362 -2.49581
head 3.58032 0.00655204 -0.359501
lclavicle 0 0 0
lhumerus -36.8361 -32.2337 101.809
lradius 101.686 -0 0
lwrist 44.1815 0 0
lhand -21.102 44.7965 0.101737
lfingers 0 0 0
lthumb 5.27572 74.7035 0.0974966
rclavicle 0 0 0
rhumerus 12.6527 27.1226 -70.7211
rradius 68.1519 -0 0
rwrist -12.8213 0 0
rhand 9.15703 -27.7923 1.44011
rfingers 0 0 0
rthumb 33.5348 -49.2885 3.55058
